<svg width="842" height="790" viewBox="0 0 842 790" fill="none" xmlns="http://www.w3.org/2000/svg">
<g filter="url(#filter0_d_2_40)">
<path d="M55.5042 116.435C66.2459 77.2326 97.7169 47.77 137.431 39.1108C210.738 23.1267 334.218 0 435 0C533.384 0 655.849 22.0396 731.471 37.9584C775.054 47.1327 808.44 81.0992 815.62 125.054C823.577 173.769 832.848 244.881 837 330C841.955 431.572 827.347 580.709 815.507 679.531C808.438 738.54 758.017 782 698.586 782H151.319C104.236 782 61.6028 754.385 47.7153 709.398C30.5994 653.952 10.4697 570.456 4.9999 472C-1.82695 349.117 32.8254 199.202 55.5042 116.435Z" fill="#CCF0E6"/>
<path d="M698.586 781.5H151.319C104.426 781.5 62.0076 754.001 48.193 709.25C31.0858 653.833 10.9661 570.377 5.49913 471.972C-1.32287 349.176 33.309 199.329 55.9865 116.567C66.6782 77.5469 98.0025 48.2195 137.537 39.5993C210.841 23.6162 334.276 0.5 435 0.5C533.329 0.5 655.75 22.5297 731.368 38.4477C774.755 47.5808 807.981 81.39 815.127 125.135C823.081 173.835 832.349 244.927 836.501 330.024C841.453 431.549 826.85 580.647 815.011 679.472C807.972 738.221 757.772 781.5 698.586 781.5Z" stroke="black"/>
</g>
<defs>
<filter id="filter0_d_2_40" x="0.124756" y="0" width="841.867" height="790" filterUnits="userSpaceOnUse" color-interpolation-filters="sRGB">
<feFlood flood-opacity="0" result="BackgroundImageFix"/>
<feColorMatrix in="SourceAlpha" type="matrix" values="0 0 0 0 0 0 0 0 0 0 0 0 0 0 0 0 0 0 127 0" result="hardAlpha"/>
<feOffset dy="4"/>
<feGaussianBlur stdDeviation="2"/>
<feComposite in2="hardAlpha" operator="out"/>
<feColorMatrix type="matrix" values="0 0 0 0 0 0 0 0 0 0 0 0 0 0 0 0 0 0 0.25 0"/>
<feBlend mode="normal" in2="BackgroundImageFix" result="effect1_dropShadow_2_40"/>
<feBlend mode="normal" in="SourceGraphic" in2="effect1_dropShadow_2_40" result="shape"/>
</filter>
</defs>
</svg>
